<mxfile host="app.diagrams.net" modified="2023-10-22T20:37:14.312Z" agent="Mozilla/5.0 (Macintosh; Intel Mac OS X 10_15_7) AppleWebKit/537.36 (KHTML, like Gecko) Chrome/118.0.0.0 Safari/537.36" etag="RoYWtjhur4JHFSCRtpCg" version="22.0.6" type="github">
  <diagram name="Page-1" id="FjWC6QjLUinHk2Ga2c16">
    <mxGraphModel dx="2385" dy="1303" grid="1" gridSize="18" guides="1" tooltips="1" connect="1" arrows="1" fold="1" page="1" pageScale="1" pageWidth="1600" pageHeight="1200" math="0" shadow="1">
      <root>
        <mxCell id="0" />
        <mxCell id="1" parent="0" />
        <mxCell id="eaSxxxD8elgmZbJTlYnG-39" style="edgeStyle=orthogonalEdgeStyle;rounded=1;orthogonalLoop=1;jettySize=auto;html=1;entryX=0.5;entryY=0;entryDx=0;entryDy=0;fontFamily=Montserras;fontSize=17;fontSource=https%3A%2F%2Ffonts.googleapis.com%2Fcss%3Ffamily%3DMontserras;" edge="1" parent="1" source="eaSxxxD8elgmZbJTlYnG-1" target="eaSxxxD8elgmZbJTlYnG-8">
          <mxGeometry relative="1" as="geometry" />
        </mxCell>
        <mxCell id="eaSxxxD8elgmZbJTlYnG-40" style="edgeStyle=orthogonalEdgeStyle;rounded=1;orthogonalLoop=1;jettySize=auto;html=1;exitX=0.5;exitY=1;exitDx=0;exitDy=0;entryX=0.5;entryY=0;entryDx=0;entryDy=0;fontFamily=Montserras;fontSize=17;fontSource=https%3A%2F%2Ffonts.googleapis.com%2Fcss%3Ffamily%3DMontserras;" edge="1" parent="1" source="eaSxxxD8elgmZbJTlYnG-1" target="eaSxxxD8elgmZbJTlYnG-5">
          <mxGeometry relative="1" as="geometry" />
        </mxCell>
        <mxCell id="eaSxxxD8elgmZbJTlYnG-41" style="edgeStyle=orthogonalEdgeStyle;rounded=1;orthogonalLoop=1;jettySize=auto;html=1;exitX=0.5;exitY=1;exitDx=0;exitDy=0;entryX=0.5;entryY=0;entryDx=0;entryDy=0;fontFamily=Montserras;fontSize=17;fontSource=https%3A%2F%2Ffonts.googleapis.com%2Fcss%3Ffamily%3DMontserras;" edge="1" parent="1" source="eaSxxxD8elgmZbJTlYnG-1" target="eaSxxxD8elgmZbJTlYnG-2">
          <mxGeometry relative="1" as="geometry" />
        </mxCell>
        <mxCell id="eaSxxxD8elgmZbJTlYnG-42" style="edgeStyle=orthogonalEdgeStyle;rounded=1;orthogonalLoop=1;jettySize=auto;html=1;exitX=0.5;exitY=1;exitDx=0;exitDy=0;entryX=0.5;entryY=0;entryDx=0;entryDy=0;fontFamily=Montserras;fontSize=17;fontSource=https%3A%2F%2Ffonts.googleapis.com%2Fcss%3Ffamily%3DMontserras;" edge="1" parent="1" source="eaSxxxD8elgmZbJTlYnG-1" target="eaSxxxD8elgmZbJTlYnG-4">
          <mxGeometry relative="1" as="geometry">
            <mxPoint x="486" y="234" as="targetPoint" />
          </mxGeometry>
        </mxCell>
        <mxCell id="eaSxxxD8elgmZbJTlYnG-44" style="edgeStyle=orthogonalEdgeStyle;rounded=1;orthogonalLoop=1;jettySize=auto;html=1;exitX=0.5;exitY=1;exitDx=0;exitDy=0;entryX=0.5;entryY=0;entryDx=0;entryDy=0;fontFamily=Montserras;fontSize=17;fontSource=https%3A%2F%2Ffonts.googleapis.com%2Fcss%3Ffamily%3DMontserras;" edge="1" parent="1" source="eaSxxxD8elgmZbJTlYnG-1" target="eaSxxxD8elgmZbJTlYnG-7">
          <mxGeometry relative="1" as="geometry" />
        </mxCell>
        <mxCell id="eaSxxxD8elgmZbJTlYnG-45" style="edgeStyle=orthogonalEdgeStyle;rounded=1;orthogonalLoop=1;jettySize=auto;html=1;exitX=0.5;exitY=1;exitDx=0;exitDy=0;entryX=0.5;entryY=0;entryDx=0;entryDy=0;fontFamily=Montserras;fontSize=17;fontSource=https%3A%2F%2Ffonts.googleapis.com%2Fcss%3Ffamily%3DMontserras;" edge="1" parent="1" source="eaSxxxD8elgmZbJTlYnG-1" target="eaSxxxD8elgmZbJTlYnG-9">
          <mxGeometry relative="1" as="geometry" />
        </mxCell>
        <mxCell id="eaSxxxD8elgmZbJTlYnG-46" style="edgeStyle=orthogonalEdgeStyle;rounded=1;orthogonalLoop=1;jettySize=auto;html=1;exitX=0.5;exitY=1;exitDx=0;exitDy=0;entryX=0.5;entryY=0;entryDx=0;entryDy=0;fontFamily=Montserras;fontSize=17;fontSource=https%3A%2F%2Ffonts.googleapis.com%2Fcss%3Ffamily%3DMontserras;" edge="1" parent="1" source="eaSxxxD8elgmZbJTlYnG-1" target="eaSxxxD8elgmZbJTlYnG-3">
          <mxGeometry relative="1" as="geometry">
            <mxPoint x="2286" y="216" as="targetPoint" />
          </mxGeometry>
        </mxCell>
        <mxCell id="eaSxxxD8elgmZbJTlYnG-92" style="edgeStyle=orthogonalEdgeStyle;rounded=1;orthogonalLoop=1;jettySize=auto;html=1;exitX=0.5;exitY=1;exitDx=0;exitDy=0;fontFamily=Montserras;fontSource=https%3A%2F%2Ffonts.googleapis.com%2Fcss%3Ffamily%3DMontserras;" edge="1" parent="1" source="eaSxxxD8elgmZbJTlYnG-1">
          <mxGeometry relative="1" as="geometry">
            <mxPoint x="216" y="234" as="targetPoint" />
          </mxGeometry>
        </mxCell>
        <mxCell id="eaSxxxD8elgmZbJTlYnG-1" value="Acceuil" style="rounded=1;whiteSpace=wrap;html=1;fontStyle=0;fontSize=22;fontFamily=Montserras;labelBackgroundColor=#123088;fontColor=#ffffff;fillColor=#123088;fontSource=https%3A%2F%2Ffonts.googleapis.com%2Fcss%3Ffamily%3DMontserras;" vertex="1" parent="1">
          <mxGeometry x="1540" y="80" width="120" height="64" as="geometry" />
        </mxCell>
        <mxCell id="eaSxxxD8elgmZbJTlYnG-56" style="edgeStyle=orthogonalEdgeStyle;rounded=1;orthogonalLoop=1;jettySize=auto;html=1;exitX=0.5;exitY=1;exitDx=0;exitDy=0;entryX=0.5;entryY=0;entryDx=0;entryDy=0;fontFamily=Montserras;fontSize=17;fontColor=#f8f7f7;fontSource=https%3A%2F%2Ffonts.googleapis.com%2Fcss%3Ffamily%3DMontserras;" edge="1" parent="1" source="eaSxxxD8elgmZbJTlYnG-2" target="eaSxxxD8elgmZbJTlYnG-15">
          <mxGeometry relative="1" as="geometry" />
        </mxCell>
        <mxCell id="eaSxxxD8elgmZbJTlYnG-2" value="Agenda" style="rounded=1;whiteSpace=wrap;html=1;fontStyle=0;fontSize=17;fontFamily=Montserras;strokeColor=default;fillColor=#758fdb;fontColor=#f8f7f7;fontSource=https%3A%2F%2Ffonts.googleapis.com%2Fcss%3Ffamily%3DMontserras;" vertex="1" parent="1">
          <mxGeometry x="740" y="230" width="120" height="60" as="geometry" />
        </mxCell>
        <mxCell id="eaSxxxD8elgmZbJTlYnG-61" style="edgeStyle=orthogonalEdgeStyle;rounded=1;orthogonalLoop=1;jettySize=auto;html=1;exitX=0.5;exitY=1;exitDx=0;exitDy=0;entryX=0.5;entryY=0;entryDx=0;entryDy=0;fontFamily=Montserras;fontSize=17;fontColor=#f8f7f7;fontSource=https%3A%2F%2Ffonts.googleapis.com%2Fcss%3Ffamily%3DMontserras;" edge="1" parent="1" source="eaSxxxD8elgmZbJTlYnG-3" target="eaSxxxD8elgmZbJTlYnG-32">
          <mxGeometry relative="1" as="geometry" />
        </mxCell>
        <mxCell id="eaSxxxD8elgmZbJTlYnG-3" value="Connexion adhÃ©rent" style="rounded=1;whiteSpace=wrap;html=1;fontStyle=0;fontSize=17;strokeColor=default;fillColor=#758fdb;fontColor=#f8f7f7;fontFamily=Montserras;fontSource=https%3A%2F%2Ffonts.googleapis.com%2Fcss%3Ffamily%3DMontserras;" vertex="1" parent="1">
          <mxGeometry x="2650" y="230" width="120" height="60" as="geometry" />
        </mxCell>
        <mxCell id="eaSxxxD8elgmZbJTlYnG-4" value="Qui sommes nous ?" style="rounded=1;whiteSpace=wrap;html=1;fontSize=17;fontStyle=0;align=center;fontFamily=Montserras;strokeColor=default;fillColor=#758fdb;fontColor=#f8f7f7;fontSource=https%3A%2F%2Ffonts.googleapis.com%2Fcss%3Ffamily%3DMontserras;" vertex="1" parent="1">
          <mxGeometry x="340" y="230" width="120" height="60" as="geometry" />
        </mxCell>
        <mxCell id="eaSxxxD8elgmZbJTlYnG-51" style="edgeStyle=orthogonalEdgeStyle;rounded=1;orthogonalLoop=1;jettySize=auto;html=1;exitX=0.5;exitY=1;exitDx=0;exitDy=0;entryX=0.5;entryY=0;entryDx=0;entryDy=0;fontFamily=Montserras;fontSize=17;fontColor=#f8f7f7;fontSource=https%3A%2F%2Ffonts.googleapis.com%2Fcss%3Ffamily%3DMontserras;" edge="1" parent="1" source="eaSxxxD8elgmZbJTlYnG-5" target="eaSxxxD8elgmZbJTlYnG-19">
          <mxGeometry relative="1" as="geometry" />
        </mxCell>
        <mxCell id="eaSxxxD8elgmZbJTlYnG-52" style="edgeStyle=orthogonalEdgeStyle;rounded=1;orthogonalLoop=1;jettySize=auto;html=1;exitX=0.5;exitY=1;exitDx=0;exitDy=0;entryX=0.5;entryY=0;entryDx=0;entryDy=0;fontFamily=Montserras;fontSize=17;fontColor=#f8f7f7;fontSource=https%3A%2F%2Ffonts.googleapis.com%2Fcss%3Ffamily%3DMontserras;" edge="1" parent="1" source="eaSxxxD8elgmZbJTlYnG-5" target="eaSxxxD8elgmZbJTlYnG-20">
          <mxGeometry relative="1" as="geometry" />
        </mxCell>
        <mxCell id="eaSxxxD8elgmZbJTlYnG-53" style="edgeStyle=orthogonalEdgeStyle;rounded=1;orthogonalLoop=1;jettySize=auto;html=1;exitX=0.5;exitY=1;exitDx=0;exitDy=0;entryX=0.5;entryY=0;entryDx=0;entryDy=0;fontFamily=Montserras;fontSize=17;fontColor=#f8f7f7;fontSource=https%3A%2F%2Ffonts.googleapis.com%2Fcss%3Ffamily%3DMontserras;" edge="1" parent="1" source="eaSxxxD8elgmZbJTlYnG-5" target="eaSxxxD8elgmZbJTlYnG-13">
          <mxGeometry relative="1" as="geometry" />
        </mxCell>
        <mxCell id="eaSxxxD8elgmZbJTlYnG-54" style="edgeStyle=orthogonalEdgeStyle;rounded=1;orthogonalLoop=1;jettySize=auto;html=1;exitX=0.5;exitY=1;exitDx=0;exitDy=0;entryX=0.5;entryY=0;entryDx=0;entryDy=0;fontFamily=Montserras;fontSize=17;fontColor=#f8f7f7;fontSource=https%3A%2F%2Ffonts.googleapis.com%2Fcss%3Ffamily%3DMontserras;" edge="1" parent="1" source="eaSxxxD8elgmZbJTlYnG-5" target="eaSxxxD8elgmZbJTlYnG-22">
          <mxGeometry relative="1" as="geometry" />
        </mxCell>
        <mxCell id="eaSxxxD8elgmZbJTlYnG-5" value="Nous avons besoin de vous" style="rounded=1;whiteSpace=wrap;html=1;fontStyle=0;fontSize=17;fontFamily=Montserras;strokeColor=default;fillColor=#758fdb;fontColor=#f8f7f7;fontSource=https%3A%2F%2Ffonts.googleapis.com%2Fcss%3Ffamily%3DMontserras;" vertex="1" parent="1">
          <mxGeometry x="1140" y="230" width="120" height="60" as="geometry" />
        </mxCell>
        <mxCell id="eaSxxxD8elgmZbJTlYnG-60" style="edgeStyle=orthogonalEdgeStyle;rounded=1;orthogonalLoop=1;jettySize=auto;html=1;exitX=0.5;exitY=1;exitDx=0;exitDy=0;entryX=0.5;entryY=0;entryDx=0;entryDy=0;fontFamily=Montserras;fontSize=17;fontColor=#f8f7f7;fontSource=https%3A%2F%2Ffonts.googleapis.com%2Fcss%3Ffamily%3DMontserras;" edge="1" parent="1" source="eaSxxxD8elgmZbJTlYnG-7" target="eaSxxxD8elgmZbJTlYnG-31">
          <mxGeometry relative="1" as="geometry" />
        </mxCell>
        <mxCell id="eaSxxxD8elgmZbJTlYnG-7" value="Conactez-nous" style="rounded=1;whiteSpace=wrap;html=1;fontStyle=0;fontSize=17;fontFamily=Montserras;strokeColor=default;fillColor=#758fdb;fontColor=#f8f7f7;fontSource=https%3A%2F%2Ffonts.googleapis.com%2Fcss%3Ffamily%3DMontserras;" vertex="1" parent="1">
          <mxGeometry x="2280" y="230" width="120" height="60" as="geometry" />
        </mxCell>
        <mxCell id="eaSxxxD8elgmZbJTlYnG-8" value="Documents administratifs" style="rounded=1;whiteSpace=wrap;html=1;fontSize=17;fontFamily=Montserras;strokeColor=default;fillColor=#758fdb;fontColor=#f8f7f7;fontSource=https%3A%2F%2Ffonts.googleapis.com%2Fcss%3Ffamily%3DMontserras;" vertex="1" parent="1">
          <mxGeometry x="1540" y="230" width="120" height="60" as="geometry" />
        </mxCell>
        <mxCell id="eaSxxxD8elgmZbJTlYnG-58" style="edgeStyle=orthogonalEdgeStyle;rounded=1;orthogonalLoop=1;jettySize=auto;html=1;exitX=0.5;exitY=1;exitDx=0;exitDy=0;entryX=0.5;entryY=0;entryDx=0;entryDy=0;fontFamily=Montserras;fontSize=17;fontColor=#f8f7f7;fontSource=https%3A%2F%2Ffonts.googleapis.com%2Fcss%3Ffamily%3DMontserras;" edge="1" parent="1" source="eaSxxxD8elgmZbJTlYnG-9" target="eaSxxxD8elgmZbJTlYnG-29">
          <mxGeometry relative="1" as="geometry" />
        </mxCell>
        <mxCell id="eaSxxxD8elgmZbJTlYnG-59" style="edgeStyle=orthogonalEdgeStyle;rounded=1;orthogonalLoop=1;jettySize=auto;html=1;exitX=0.5;exitY=1;exitDx=0;exitDy=0;entryX=0.5;entryY=0;entryDx=0;entryDy=0;fontFamily=Montserras;fontSize=17;fontColor=#f8f7f7;fontSource=https%3A%2F%2Ffonts.googleapis.com%2Fcss%3Ffamily%3DMontserras;" edge="1" parent="1" source="eaSxxxD8elgmZbJTlYnG-9" target="eaSxxxD8elgmZbJTlYnG-30">
          <mxGeometry relative="1" as="geometry" />
        </mxCell>
        <mxCell id="eaSxxxD8elgmZbJTlYnG-9" value="Galerie" style="rounded=1;whiteSpace=wrap;html=1;fontStyle=0;fontSize=17;fontFamily=Montserras;strokeColor=default;fillColor=#758fdb;fontColor=#f8f7f7;fontSource=https%3A%2F%2Ffonts.googleapis.com%2Fcss%3Ffamily%3DMontserras;" vertex="1" parent="1">
          <mxGeometry x="1910" y="230" width="120" height="60" as="geometry" />
        </mxCell>
        <mxCell id="eaSxxxD8elgmZbJTlYnG-139" style="edgeStyle=orthogonalEdgeStyle;rounded=0;orthogonalLoop=1;jettySize=auto;html=1;exitX=0.5;exitY=1;exitDx=0;exitDy=0;entryX=0.5;entryY=1;entryDx=0;entryDy=0;" edge="1" parent="1" source="eaSxxxD8elgmZbJTlYnG-13" target="eaSxxxD8elgmZbJTlYnG-31">
          <mxGeometry relative="1" as="geometry">
            <Array as="points">
              <mxPoint x="980" y="738" />
              <mxPoint x="2340" y="738" />
            </Array>
          </mxGeometry>
        </mxCell>
        <mxCell id="eaSxxxD8elgmZbJTlYnG-13" value="Devenez adhÃ©rent" style="rounded=1;whiteSpace=wrap;html=1;fontStyle=0;fontSize=17;fontFamily=Montserras;fillColor=#ccdaff;fontColor=#fafafa;fontSource=https%3A%2F%2Ffonts.googleapis.com%2Fcss%3Ffamily%3DMontserras;" vertex="1" parent="1">
          <mxGeometry x="920" y="360" width="120" height="60" as="geometry" />
        </mxCell>
        <mxCell id="eaSxxxD8elgmZbJTlYnG-48" value="" style="edgeStyle=orthogonalEdgeStyle;rounded=1;orthogonalLoop=1;jettySize=auto;html=1;fontFamily=Montserras;fontSize=17;fontSource=https%3A%2F%2Ffonts.googleapis.com%2Fcss%3Ffamily%3DMontserras;" edge="1" parent="1" source="eaSxxxD8elgmZbJTlYnG-15" target="eaSxxxD8elgmZbJTlYnG-18">
          <mxGeometry relative="1" as="geometry" />
        </mxCell>
        <mxCell id="eaSxxxD8elgmZbJTlYnG-15" value="Acceuil des Ã©vÃ¨nements" style="rounded=1;whiteSpace=wrap;html=1;fontSize=17;fontStyle=0;fontFamily=Montserras;fillColor=#ccdaff;fontColor=#fafafa;fontSource=https%3A%2F%2Ffonts.googleapis.com%2Fcss%3Ffamily%3DMontserras;" vertex="1" parent="1">
          <mxGeometry x="740" y="360" width="120" height="60" as="geometry" />
        </mxCell>
        <mxCell id="eaSxxxD8elgmZbJTlYnG-57" style="edgeStyle=orthogonalEdgeStyle;rounded=1;orthogonalLoop=1;jettySize=auto;html=1;exitX=0.5;exitY=1;exitDx=0;exitDy=0;entryX=0.5;entryY=0;entryDx=0;entryDy=0;fontFamily=Montserras;fontSize=17;fontSource=https%3A%2F%2Ffonts.googleapis.com%2Fcss%3Ffamily%3DMontserras;" edge="1" parent="1" source="eaSxxxD8elgmZbJTlYnG-18" target="eaSxxxD8elgmZbJTlYnG-28">
          <mxGeometry relative="1" as="geometry" />
        </mxCell>
        <mxCell id="eaSxxxD8elgmZbJTlYnG-18" value="ÃvÃ¨nement individuel" style="rounded=1;whiteSpace=wrap;html=1;fontSize=17;fontStyle=0;fontFamily=Montserras;fillColor=#ba9704;fontColor=#ffffff;fontSource=https%3A%2F%2Ffonts.googleapis.com%2Fcss%3Ffamily%3DMontserras;" vertex="1" parent="1">
          <mxGeometry x="740" y="486" width="120" height="60" as="geometry" />
        </mxCell>
        <mxCell id="eaSxxxD8elgmZbJTlYnG-55" style="edgeStyle=orthogonalEdgeStyle;rounded=1;orthogonalLoop=1;jettySize=auto;html=1;exitX=0.5;exitY=1;exitDx=0;exitDy=0;entryX=0.5;entryY=0;entryDx=0;entryDy=0;fontFamily=Montserras;fontSize=17;fontSource=https%3A%2F%2Ffonts.googleapis.com%2Fcss%3Ffamily%3DMontserras;" edge="1" parent="1" source="eaSxxxD8elgmZbJTlYnG-19" target="eaSxxxD8elgmZbJTlYnG-35">
          <mxGeometry relative="1" as="geometry" />
        </mxCell>
        <mxCell id="eaSxxxD8elgmZbJTlYnG-19" value="Faites un don&amp;nbsp;" style="rounded=1;whiteSpace=wrap;html=1;fontStyle=0;fontSize=17;fontFamily=Montserras;fillColor=#ccdaff;fontColor=#fafafa;fontSource=https%3A%2F%2Ffonts.googleapis.com%2Fcss%3Ffamily%3DMontserras;gradientColor=none;" vertex="1" parent="1">
          <mxGeometry x="1060" y="360" width="120" height="60" as="geometry" />
        </mxCell>
        <mxCell id="eaSxxxD8elgmZbJTlYnG-140" style="edgeStyle=orthogonalEdgeStyle;rounded=0;orthogonalLoop=1;jettySize=auto;html=1;exitX=0.5;exitY=1;exitDx=0;exitDy=0;entryX=0.5;entryY=1;entryDx=0;entryDy=0;" edge="1" parent="1" source="eaSxxxD8elgmZbJTlYnG-20" target="eaSxxxD8elgmZbJTlYnG-31">
          <mxGeometry relative="1" as="geometry">
            <Array as="points">
              <mxPoint x="1280" y="738" />
              <mxPoint x="2340" y="738" />
            </Array>
          </mxGeometry>
        </mxCell>
        <mxCell id="eaSxxxD8elgmZbJTlYnG-20" value="BoÃ®te Ã  idÃ©e" style="rounded=1;whiteSpace=wrap;html=1;fontStyle=0;fontSize=17;fontFamily=Montserras;fillColor=#ccdaff;fontColor=#fafafa;fontSource=https%3A%2F%2Ffonts.googleapis.com%2Fcss%3Ffamily%3DMontserras;" vertex="1" parent="1">
          <mxGeometry x="1220" y="360" width="120" height="60" as="geometry" />
        </mxCell>
        <mxCell id="eaSxxxD8elgmZbJTlYnG-141" style="edgeStyle=orthogonalEdgeStyle;rounded=0;orthogonalLoop=1;jettySize=auto;html=1;exitX=0.5;exitY=1;exitDx=0;exitDy=0;entryX=0.5;entryY=1;entryDx=0;entryDy=0;" edge="1" parent="1" source="eaSxxxD8elgmZbJTlYnG-22" target="eaSxxxD8elgmZbJTlYnG-31">
          <mxGeometry relative="1" as="geometry">
            <Array as="points">
              <mxPoint x="1420" y="738" />
              <mxPoint x="2340" y="738" />
            </Array>
          </mxGeometry>
        </mxCell>
        <mxCell id="eaSxxxD8elgmZbJTlYnG-22" value="Nous sponsoriser" style="rounded=1;whiteSpace=wrap;html=1;fontStyle=0;fontSize=17;fontFamily=Montserras;fillColor=#ccdaff;fontColor=#fafafa;fontSource=https%3A%2F%2Ffonts.googleapis.com%2Fcss%3Ffamily%3DMontserras;" vertex="1" parent="1">
          <mxGeometry x="1360" y="360" width="120" height="60" as="geometry" />
        </mxCell>
        <mxCell id="eaSxxxD8elgmZbJTlYnG-27" style="edgeStyle=orthogonalEdgeStyle;rounded=1;orthogonalLoop=1;jettySize=auto;html=1;exitX=0.5;exitY=1;exitDx=0;exitDy=0;fontStyle=0;fontSize=17;fontFamily=Montserras;strokeColor=default;fontColor=#f8f7f7;fontSource=https%3A%2F%2Ffonts.googleapis.com%2Fcss%3Ffamily%3DMontserras;" edge="1" parent="1" source="eaSxxxD8elgmZbJTlYnG-4" target="eaSxxxD8elgmZbJTlYnG-4">
          <mxGeometry relative="1" as="geometry" />
        </mxCell>
        <mxCell id="eaSxxxD8elgmZbJTlYnG-28" value="&lt;span style=&quot;font-size: 17px;&quot;&gt;&lt;font style=&quot;font-size: 17px;&quot;&gt;Widget HelloAsso&lt;/font&gt;&lt;/span&gt;" style="rounded=1;whiteSpace=wrap;html=1;fontStyle=0;fontSize=17;fontFamily=Montserras;fillColor=#e8ca5e;fontColor=#fafafa;fontSource=https%3A%2F%2Ffonts.googleapis.com%2Fcss%3Ffamily%3DMontserras;" vertex="1" parent="1">
          <mxGeometry x="740" y="612" width="120" height="60" as="geometry" />
        </mxCell>
        <mxCell id="eaSxxxD8elgmZbJTlYnG-29" value="Photos" style="rounded=1;whiteSpace=wrap;html=1;fontStyle=0;fontSize=17;fontFamily=Montserras;fillColor=#ccdaff;fontColor=#fafafa;fontSource=https%3A%2F%2Ffonts.googleapis.com%2Fcss%3Ffamily%3DMontserras;" vertex="1" parent="1">
          <mxGeometry x="1830" y="360" width="120" height="60" as="geometry" />
        </mxCell>
        <mxCell id="eaSxxxD8elgmZbJTlYnG-30" value="Presse" style="rounded=1;whiteSpace=wrap;html=1;fontStyle=0;fontSize=17;fontFamily=Montserras;fillColor=#ccdaff;fontColor=#fafafa;fontSource=https%3A%2F%2Ffonts.googleapis.com%2Fcss%3Ffamily%3DMontserras;" vertex="1" parent="1">
          <mxGeometry x="1990" y="360" width="120" height="60" as="geometry" />
        </mxCell>
        <mxCell id="eaSxxxD8elgmZbJTlYnG-31" value="Formulaire 1" style="rounded=1;whiteSpace=wrap;html=1;fontStyle=0;fontSize=17;fontFamily=Montserras;fillColor=#ccdaff;fontColor=#fafafa;fontSource=https%3A%2F%2Ffonts.googleapis.com%2Fcss%3Ffamily%3DMontserras;" vertex="1" parent="1">
          <mxGeometry x="2280" y="360" width="120" height="60" as="geometry" />
        </mxCell>
        <mxCell id="eaSxxxD8elgmZbJTlYnG-34" value="" style="edgeStyle=orthogonalEdgeStyle;rounded=1;orthogonalLoop=1;jettySize=auto;html=1;fontStyle=0;fontSize=17;fontFamily=Montserras;fontSource=https%3A%2F%2Ffonts.googleapis.com%2Fcss%3Ffamily%3DMontserras;" edge="1" parent="1" source="eaSxxxD8elgmZbJTlYnG-32" target="eaSxxxD8elgmZbJTlYnG-33">
          <mxGeometry relative="1" as="geometry" />
        </mxCell>
        <mxCell id="eaSxxxD8elgmZbJTlYnG-32" value="Page de connexion" style="rounded=1;whiteSpace=wrap;html=1;fontStyle=0;fontSize=17;fillColor=#ccdaff;fontColor=#fafafa;fontFamily=Montserras;fontSource=https%3A%2F%2Ffonts.googleapis.com%2Fcss%3Ffamily%3DMontserras;" vertex="1" parent="1">
          <mxGeometry x="2650" y="360" width="120" height="60" as="geometry" />
        </mxCell>
        <mxCell id="eaSxxxD8elgmZbJTlYnG-33" value="Page profil" style="whiteSpace=wrap;html=1;rounded=1;fontStyle=0;fontSize=17;fillColor=#ba9704;fontColor=#ffffff;fontFamily=Montserras;fontSource=https%3A%2F%2Ffonts.googleapis.com%2Fcss%3Ffamily%3DMontserras;" vertex="1" parent="1">
          <mxGeometry x="2650" y="486" width="120" height="60" as="geometry" />
        </mxCell>
        <mxCell id="eaSxxxD8elgmZbJTlYnG-94" value="" style="edgeStyle=orthogonalEdgeStyle;rounded=0;orthogonalLoop=1;jettySize=auto;html=1;fontFamily=Montserras;fontSource=https%3A%2F%2Ffonts.googleapis.com%2Fcss%3Ffamily%3DMontserras;" edge="1" parent="1" source="eaSxxxD8elgmZbJTlYnG-35" target="eaSxxxD8elgmZbJTlYnG-19">
          <mxGeometry relative="1" as="geometry" />
        </mxCell>
        <mxCell id="eaSxxxD8elgmZbJTlYnG-35" value="Widget HelloAsso" style="rounded=1;whiteSpace=wrap;html=1;fontStyle=0;fontSize=17;fontFamily=Montserras;fillColor=#ba9704;fontColor=#ffffff;fontSource=https%3A%2F%2Ffonts.googleapis.com%2Fcss%3Ffamily%3DMontserras;" vertex="1" parent="1">
          <mxGeometry x="1060" y="486" width="120" height="60" as="geometry" />
        </mxCell>
        <mxCell id="eaSxxxD8elgmZbJTlYnG-37" style="edgeStyle=orthogonalEdgeStyle;rounded=1;orthogonalLoop=1;jettySize=auto;html=1;exitX=0.5;exitY=1;exitDx=0;exitDy=0;fontSize=17;fontFamily=Montserras;strokeColor=default;fontColor=#f8f7f7;fontSource=https%3A%2F%2Ffonts.googleapis.com%2Fcss%3Ffamily%3DMontserras;" edge="1" parent="1" source="eaSxxxD8elgmZbJTlYnG-4" target="eaSxxxD8elgmZbJTlYnG-4">
          <mxGeometry relative="1" as="geometry" />
        </mxCell>
        <mxCell id="eaSxxxD8elgmZbJTlYnG-76" style="edgeStyle=orthogonalEdgeStyle;rounded=1;orthogonalLoop=1;jettySize=auto;html=1;exitX=1;exitY=0.5;exitDx=0;exitDy=0;entryX=0;entryY=0.5;entryDx=0;entryDy=0;fontFamily=Montserras;fontSize=17;fontSource=https%3A%2F%2Ffonts.googleapis.com%2Fcss%3Ffamily%3DMontserras;" edge="1" parent="1" source="eaSxxxD8elgmZbJTlYnG-62" target="eaSxxxD8elgmZbJTlYnG-63">
          <mxGeometry relative="1" as="geometry" />
        </mxCell>
        <mxCell id="eaSxxxD8elgmZbJTlYnG-62" value="Contactez-nous" style="rounded=1;whiteSpace=wrap;html=1;fontFamily=Montserras;fontSize=17;fillColor=#fffbd5;fontColor=#494946;fontSource=https%3A%2F%2Ffonts.googleapis.com%2Fcss%3Ffamily%3DMontserras;" vertex="1" parent="1">
          <mxGeometry x="340" y="792" width="120" height="60" as="geometry" />
        </mxCell>
        <mxCell id="eaSxxxD8elgmZbJTlYnG-71" style="edgeStyle=orthogonalEdgeStyle;rounded=1;orthogonalLoop=1;jettySize=auto;html=1;entryX=0;entryY=0.5;entryDx=0;entryDy=0;fontFamily=Montserras;fontSize=17;fontSource=https%3A%2F%2Ffonts.googleapis.com%2Fcss%3Ffamily%3DMontserras;" edge="1" parent="1" source="eaSxxxD8elgmZbJTlYnG-63" target="eaSxxxD8elgmZbJTlYnG-64">
          <mxGeometry relative="1" as="geometry">
            <mxPoint x="1134" y="822" as="targetPoint" />
          </mxGeometry>
        </mxCell>
        <mxCell id="eaSxxxD8elgmZbJTlYnG-138" style="edgeStyle=orthogonalEdgeStyle;rounded=0;orthogonalLoop=1;jettySize=auto;html=1;exitX=0.5;exitY=0;exitDx=0;exitDy=0;entryX=0.5;entryY=1;entryDx=0;entryDy=0;" edge="1" parent="1" source="eaSxxxD8elgmZbJTlYnG-63" target="eaSxxxD8elgmZbJTlYnG-31">
          <mxGeometry relative="1" as="geometry">
            <Array as="points">
              <mxPoint x="800" y="738" />
              <mxPoint x="2340" y="738" />
            </Array>
          </mxGeometry>
        </mxCell>
        <mxCell id="eaSxxxD8elgmZbJTlYnG-63" value="Laissez-nous un commentaire" style="rounded=1;whiteSpace=wrap;html=1;fontFamily=Montserras;fontSize=17;fillColor=#fffbd5;fontColor=#494946;fontSource=https%3A%2F%2Ffonts.googleapis.com%2Fcss%3Ffamily%3DMontserras;" vertex="1" parent="1">
          <mxGeometry x="740" y="792" width="120" height="60" as="geometry" />
        </mxCell>
        <mxCell id="eaSxxxD8elgmZbJTlYnG-72" style="edgeStyle=orthogonalEdgeStyle;rounded=1;orthogonalLoop=1;jettySize=auto;html=1;entryX=0;entryY=0.5;entryDx=0;entryDy=0;fontFamily=Montserras;fontSize=17;fontSource=https%3A%2F%2Ffonts.googleapis.com%2Fcss%3Ffamily%3DMontserras;" edge="1" parent="1" source="eaSxxxD8elgmZbJTlYnG-64" target="eaSxxxD8elgmZbJTlYnG-65">
          <mxGeometry relative="1" as="geometry" />
        </mxCell>
        <mxCell id="eaSxxxD8elgmZbJTlYnG-91" style="edgeStyle=orthogonalEdgeStyle;rounded=1;orthogonalLoop=1;jettySize=auto;html=1;exitX=0.5;exitY=1;exitDx=0;exitDy=0;entryX=0.5;entryY=0;entryDx=0;entryDy=0;fontFamily=Montserras;fontSize=17;fontSource=https%3A%2F%2Ffonts.googleapis.com%2Fcss%3Ffamily%3DMontserras;" edge="1" parent="1" source="eaSxxxD8elgmZbJTlYnG-64" target="eaSxxxD8elgmZbJTlYnG-90">
          <mxGeometry relative="1" as="geometry" />
        </mxCell>
        <mxCell id="eaSxxxD8elgmZbJTlYnG-64" value="S&#39;abonner Ã  la newsletter" style="rounded=1;whiteSpace=wrap;html=1;fontFamily=Montserras;fontSize=17;fillColor=#fffbd5;fontColor=#494946;fontSource=https%3A%2F%2Ffonts.googleapis.com%2Fcss%3Ffamily%3DMontserras;" vertex="1" parent="1">
          <mxGeometry x="1140" y="792" width="120" height="60" as="geometry" />
        </mxCell>
        <mxCell id="eaSxxxD8elgmZbJTlYnG-73" style="edgeStyle=orthogonalEdgeStyle;rounded=1;orthogonalLoop=1;jettySize=auto;html=1;exitX=1;exitY=0.5;exitDx=0;exitDy=0;entryX=0;entryY=0.5;entryDx=0;entryDy=0;fontFamily=Montserras;fontSize=17;fontSource=https%3A%2F%2Ffonts.googleapis.com%2Fcss%3Ffamily%3DMontserras;" edge="1" parent="1" source="eaSxxxD8elgmZbJTlYnG-65" target="eaSxxxD8elgmZbJTlYnG-66">
          <mxGeometry relative="1" as="geometry" />
        </mxCell>
        <mxCell id="eaSxxxD8elgmZbJTlYnG-65" value="Politiques de confidentialitÃ©" style="rounded=1;whiteSpace=wrap;html=1;fontFamily=Montserras;fontSize=17;fillColor=#fffbd5;fontColor=#494946;fontSource=https%3A%2F%2Ffonts.googleapis.com%2Fcss%3Ffamily%3DMontserras;" vertex="1" parent="1">
          <mxGeometry x="1540" y="792" width="120" height="60" as="geometry" />
        </mxCell>
        <mxCell id="eaSxxxD8elgmZbJTlYnG-74" style="edgeStyle=orthogonalEdgeStyle;rounded=1;orthogonalLoop=1;jettySize=auto;html=1;exitX=1;exitY=0.5;exitDx=0;exitDy=0;entryX=0;entryY=0.5;entryDx=0;entryDy=0;fontFamily=Montserras;fontSize=17;fontSource=https%3A%2F%2Ffonts.googleapis.com%2Fcss%3Ffamily%3DMontserras;" edge="1" parent="1" source="eaSxxxD8elgmZbJTlYnG-66" target="eaSxxxD8elgmZbJTlYnG-67">
          <mxGeometry relative="1" as="geometry" />
        </mxCell>
        <mxCell id="eaSxxxD8elgmZbJTlYnG-66" value="Mentions lÃ©gales" style="rounded=1;whiteSpace=wrap;html=1;fontFamily=Montserras;fontSize=17;fillColor=#fffbd5;fontColor=#494946;fontSource=https%3A%2F%2Ffonts.googleapis.com%2Fcss%3Ffamily%3DMontserras;" vertex="1" parent="1">
          <mxGeometry x="1910" y="792" width="120" height="60" as="geometry" />
        </mxCell>
        <mxCell id="eaSxxxD8elgmZbJTlYnG-75" style="edgeStyle=orthogonalEdgeStyle;rounded=1;orthogonalLoop=1;jettySize=auto;html=1;exitX=1;exitY=0.5;exitDx=0;exitDy=0;entryX=0;entryY=0.5;entryDx=0;entryDy=0;fontFamily=Montserras;fontSize=17;fontSource=https%3A%2F%2Ffonts.googleapis.com%2Fcss%3Ffamily%3DMontserras;" edge="1" parent="1" source="eaSxxxD8elgmZbJTlYnG-67" target="eaSxxxD8elgmZbJTlYnG-68">
          <mxGeometry relative="1" as="geometry" />
        </mxCell>
        <mxCell id="eaSxxxD8elgmZbJTlYnG-67" value="Facebook" style="rounded=1;whiteSpace=wrap;html=1;fontFamily=Montserras;fontSize=17;fillColor=#fffbd5;fontColor=#494946;fontSource=https%3A%2F%2Ffonts.googleapis.com%2Fcss%3Ffamily%3DMontserras;" vertex="1" parent="1">
          <mxGeometry x="2280" y="792" width="120" height="60" as="geometry" />
        </mxCell>
        <mxCell id="eaSxxxD8elgmZbJTlYnG-68" value="Instagram" style="rounded=1;whiteSpace=wrap;html=1;fontSize=17;fillColor=#fffbd5;fontColor=#494946;fontFamily=Montserras;fontSource=https%3A%2F%2Ffonts.googleapis.com%2Fcss%3Ffamily%3DMontserras;" vertex="1" parent="1">
          <mxGeometry x="2650" y="792" width="120" height="60" as="geometry" />
        </mxCell>
        <mxCell id="eaSxxxD8elgmZbJTlYnG-86" value="" style="edgeStyle=segmentEdgeStyle;endArrow=classic;html=1;curved=0;rounded=1;endSize=8;startSize=8;entryX=0;entryY=0.5;entryDx=0;entryDy=0;fontFamily=Montserras;fontSource=https%3A%2F%2Ffonts.googleapis.com%2Fcss%3Ffamily%3DMontserras;" edge="1" parent="1" target="eaSxxxD8elgmZbJTlYnG-62">
          <mxGeometry width="50" height="50" relative="1" as="geometry">
            <mxPoint x="216" y="216" as="sourcePoint" />
            <mxPoint x="324" y="810" as="targetPoint" />
            <Array as="points">
              <mxPoint x="216" y="822" />
            </Array>
          </mxGeometry>
        </mxCell>
        <mxCell id="eaSxxxD8elgmZbJTlYnG-88" value="&lt;font style=&quot;font-size: 17px;&quot;&gt;&lt;font style=&quot;font-size: 17px;&quot;&gt;Page&lt;/font&gt; 404&lt;/font&gt;" style="rounded=1;whiteSpace=wrap;html=1;fontFamily=Montserras;fontSize=17;fillColor=#758fdb;fontColor=#f8f7f7;" vertex="1" parent="1">
          <mxGeometry x="340" y="1053" width="120" height="60" as="geometry" />
        </mxCell>
        <mxCell id="eaSxxxD8elgmZbJTlYnG-90" value="Formulaire 2" style="rounded=1;whiteSpace=wrap;html=1;fontFamily=Montserras;fontSize=17;fillColor=#123088;fontColor=#ffffff;fontSource=https%3A%2F%2Ffonts.googleapis.com%2Fcss%3Ffamily%3DMontserras;" vertex="1" parent="1">
          <mxGeometry x="1140" y="900" width="120" height="60" as="geometry" />
        </mxCell>
        <mxCell id="eaSxxxD8elgmZbJTlYnG-95" value="&lt;h1 style=&quot;font-size: 26px;&quot;&gt;Niveau 1&lt;/h1&gt;" style="text;html=1;strokeColor=none;fillColor=none;spacing=5;spacingTop=-20;whiteSpace=wrap;overflow=hidden;rounded=0;fontColor=#123088;align=center;fontFamily=Montserras;fontSource=https%3A%2F%2Ffonts.googleapis.com%2Fcss%3Ffamily%3DMontserras;fontStyle=1;fontSize=26;" vertex="1" parent="1">
          <mxGeometry x="2970" y="94" width="108" height="36" as="geometry" />
        </mxCell>
        <mxCell id="eaSxxxD8elgmZbJTlYnG-96" value="&lt;h1 style=&quot;font-size: 26px;&quot;&gt;Niveau 2&lt;/h1&gt;" style="text;html=1;strokeColor=none;fillColor=none;spacing=5;spacingTop=-20;whiteSpace=wrap;overflow=hidden;rounded=0;fontColor=#758fdb;align=center;fontFamily=Montserras;fontSource=https%3A%2F%2Ffonts.googleapis.com%2Fcss%3Ffamily%3DMontserras;fontStyle=1;fontSize=26;" vertex="1" parent="1">
          <mxGeometry x="2970" y="242" width="108" height="36" as="geometry" />
        </mxCell>
        <mxCell id="eaSxxxD8elgmZbJTlYnG-97" value="&lt;h1 style=&quot;font-size: 26px;&quot;&gt;Niveau 3&lt;/h1&gt;" style="text;html=1;strokeColor=none;fillColor=none;spacing=5;spacingTop=-20;whiteSpace=wrap;overflow=hidden;rounded=0;fontColor=#ccdaff;align=center;fontFamily=Montserras;fontSource=https%3A%2F%2Ffonts.googleapis.com%2Fcss%3Ffamily%3DMontserras;fontStyle=1;fontSize=26;" vertex="1" parent="1">
          <mxGeometry x="2970" y="372" width="108" height="36" as="geometry" />
        </mxCell>
        <mxCell id="eaSxxxD8elgmZbJTlYnG-98" value="&lt;h1 style=&quot;font-size: 26px;&quot;&gt;Niveau 4&lt;/h1&gt;" style="text;html=1;strokeColor=none;fillColor=none;spacing=5;spacingTop=-20;whiteSpace=wrap;overflow=hidden;rounded=0;fontColor=#ba9704;align=center;fontFamily=Montserras;fontSource=https%3A%2F%2Ffonts.googleapis.com%2Fcss%3Ffamily%3DMontserras;fontStyle=1;fontSize=26;" vertex="1" parent="1">
          <mxGeometry x="2970" y="498" width="108" height="36" as="geometry" />
        </mxCell>
        <mxCell id="eaSxxxD8elgmZbJTlYnG-99" value="&lt;h1 style=&quot;font-size: 26px;&quot;&gt;Niveau 5&lt;/h1&gt;" style="text;html=1;strokeColor=none;fillColor=none;spacing=5;spacingTop=-20;whiteSpace=wrap;overflow=hidden;rounded=0;fontColor=#e8ca5e;align=center;fontFamily=Montserras;fontSource=https%3A%2F%2Ffonts.googleapis.com%2Fcss%3Ffamily%3DMontserras;fontStyle=1;fontSize=26;" vertex="1" parent="1">
          <mxGeometry x="2952" y="624" width="144" height="36" as="geometry" />
        </mxCell>
        <mxCell id="eaSxxxD8elgmZbJTlYnG-100" value="&lt;h1 style=&quot;font-size: 26px;&quot;&gt;Footer&lt;/h1&gt;" style="text;html=1;strokeColor=none;fillColor=none;spacing=5;spacingTop=-20;whiteSpace=wrap;overflow=hidden;rounded=0;fontColor=#cec7ab;align=center;labelBackgroundColor=none;fontFamily=Montserras;fontSource=https%3A%2F%2Ffonts.googleapis.com%2Fcss%3Ffamily%3DMontserras;fontStyle=1;fontSize=26;" vertex="1" parent="1">
          <mxGeometry x="2970" y="804" width="108" height="36" as="geometry" />
        </mxCell>
        <mxCell id="eaSxxxD8elgmZbJTlYnG-102" value="&lt;h1 style=&quot;font-size: 26px;&quot;&gt;Niveau 1&lt;/h1&gt;" style="text;html=1;strokeColor=none;fillColor=none;spacing=5;spacingTop=-20;whiteSpace=wrap;overflow=hidden;rounded=0;fontColor=#123088;align=center;fontFamily=Montserras;fontSource=https%3A%2F%2Ffonts.googleapis.com%2Fcss%3Ffamily%3DMontserras;fontStyle=1;fontSize=26;" vertex="1" parent="1">
          <mxGeometry x="2970" y="912" width="108" height="36" as="geometry" />
        </mxCell>
        <mxCell id="eaSxxxD8elgmZbJTlYnG-103" value="&lt;h1 style=&quot;font-size: 26px;&quot;&gt;Page satelitte&lt;/h1&gt;" style="text;html=1;strokeColor=none;fillColor=none;spacing=5;spacingTop=-20;whiteSpace=wrap;overflow=hidden;rounded=0;fontColor=#758fdb;align=center;fontFamily=Montserras;fontSource=https%3A%2F%2Ffonts.googleapis.com%2Fcss%3Ffamily%3DMontserras;fontStyle=1;fontSize=26;" vertex="1" parent="1">
          <mxGeometry x="2934" y="1035" width="180" height="78" as="geometry" />
        </mxCell>
        <mxCell id="eaSxxxD8elgmZbJTlYnG-128" value="" style="verticalLabelPosition=bottom;shadow=0;dashed=0;align=center;html=1;verticalAlign=top;shape=mxgraph.electrical.abstract.summation_point;" vertex="1" parent="1">
          <mxGeometry x="1162" y="402" width="18" height="18" as="geometry" />
        </mxCell>
        <mxCell id="eaSxxxD8elgmZbJTlYnG-129" value="" style="verticalLabelPosition=bottom;shadow=0;dashed=0;align=center;html=1;verticalAlign=top;shape=mxgraph.electrical.abstract.summation_point;" vertex="1" parent="1">
          <mxGeometry x="1322" y="402" width="18" height="18" as="geometry" />
        </mxCell>
        <mxCell id="eaSxxxD8elgmZbJTlYnG-130" value="" style="verticalLabelPosition=bottom;shadow=0;dashed=0;align=center;html=1;verticalAlign=top;shape=mxgraph.electrical.abstract.summation_point;" vertex="1" parent="1">
          <mxGeometry x="1462" y="402" width="18" height="18" as="geometry" />
        </mxCell>
        <mxCell id="eaSxxxD8elgmZbJTlYnG-131" value="" style="whiteSpace=wrap;html=1;aspect=fixed;" vertex="1" parent="1">
          <mxGeometry x="1872" y="933" width="219" height="219" as="geometry" />
        </mxCell>
        <mxCell id="eaSxxxD8elgmZbJTlYnG-135" value="" style="edgeStyle=orthogonalEdgeStyle;rounded=0;orthogonalLoop=1;jettySize=auto;html=1;" edge="1" parent="1" source="eaSxxxD8elgmZbJTlYnG-132" target="eaSxxxD8elgmZbJTlYnG-134">
          <mxGeometry relative="1" as="geometry" />
        </mxCell>
        <mxCell id="eaSxxxD8elgmZbJTlYnG-132" value="" style="verticalLabelPosition=bottom;shadow=0;dashed=0;align=center;html=1;verticalAlign=top;shape=mxgraph.electrical.abstract.summation_point;" vertex="1" parent="1">
          <mxGeometry x="1892" y="960" width="18" height="18" as="geometry" />
        </mxCell>
        <mxCell id="eaSxxxD8elgmZbJTlYnG-134" value="Secondaire" style="whiteSpace=wrap;html=1;verticalAlign=top;shadow=0;dashed=0;" vertex="1" parent="1">
          <mxGeometry x="1950" y="952.5" width="120" height="33" as="geometry" />
        </mxCell>
        <mxCell id="eaSxxxD8elgmZbJTlYnG-136" value="Formulaire 1: email" style="rounded=0;whiteSpace=wrap;html=1;" vertex="1" parent="1">
          <mxGeometry x="1910.5" y="1053" width="142" height="33" as="geometry" />
        </mxCell>
        <mxCell id="eaSxxxD8elgmZbJTlYnG-137" value="Formulaire 2: BDD" style="rounded=0;whiteSpace=wrap;html=1;" vertex="1" parent="1">
          <mxGeometry x="1910" y="1098" width="142" height="33" as="geometry" />
        </mxCell>
        <mxCell id="eaSxxxD8elgmZbJTlYnG-142" value="" style="shape=sumEllipse;perimeter=ellipsePerimeter;html=1;backgroundOutline=1;" vertex="1" parent="1">
          <mxGeometry x="2382" y="834" width="18" height="18" as="geometry" />
        </mxCell>
        <mxCell id="eaSxxxD8elgmZbJTlYnG-144" value="" style="shape=sumEllipse;perimeter=ellipsePerimeter;html=1;backgroundOutline=1;" vertex="1" parent="1">
          <mxGeometry x="2752" y="834" width="18" height="18" as="geometry" />
        </mxCell>
        <mxCell id="eaSxxxD8elgmZbJTlYnG-149" style="edgeStyle=orthogonalEdgeStyle;rounded=0;orthogonalLoop=1;jettySize=auto;html=1;exitX=1;exitY=0.5;exitDx=0;exitDy=0;entryX=0;entryY=0.5;entryDx=0;entryDy=0;" edge="1" parent="1" source="eaSxxxD8elgmZbJTlYnG-146" target="eaSxxxD8elgmZbJTlYnG-147">
          <mxGeometry relative="1" as="geometry" />
        </mxCell>
        <mxCell id="eaSxxxD8elgmZbJTlYnG-146" value="" style="shape=sumEllipse;perimeter=ellipsePerimeter;html=1;backgroundOutline=1;" vertex="1" parent="1">
          <mxGeometry x="1892" y="1011" width="16" height="18" as="geometry" />
        </mxCell>
        <mxCell id="eaSxxxD8elgmZbJTlYnG-147" value="Liens extÃ©rieurs" style="rounded=0;whiteSpace=wrap;html=1;" vertex="1" parent="1">
          <mxGeometry x="1950" y="1005" width="120" height="30" as="geometry" />
        </mxCell>
      </root>
    </mxGraphModel>
  </diagram>
</mxfile>
